<?xml version="1.0" standalone="no"?><!DOCTYPE svg PUBLIC "-//W3C//DTD SVG 1.1//EN" "http://www.w3.org/Graphics/SVG/1.1/DTD/svg11.dtd"><svg t="1695691729299" class="icon" viewBox="0 0 1024 1024" version="1.1" xmlns="http://www.w3.org/2000/svg" p-id="4043" xmlns:xlink="http://www.w3.org/1999/xlink" width="200" height="200"><path d="M886.700373 734.293333a145.28 145.28 0 0 1-106.666666 41.173334H426.753707c106.666667-103.04 197.546667-189.653333 205.866666-197.973334A648.96 648.96 0 0 1 680.833707 533.333333a139.306667 139.306667 0 0 1 103.04-42.666666 153.6 153.6 0 0 1 102.826666 42.666666 139.733333 139.733333 0 0 1 0 202.026667m69.973334-268.16a230.186667 230.186667 0 0 0-168.746667-74.24 253.013333 253.013333 0 0 0-152.32 53.76 744.533333 744.533333 0 0 0-61.866667 57.6c-16.426667 16.64-370.346667 362.666667-370.346666 362.666667a359.04 359.04 0 0 0 65.92 4.053333h448a507.733333 507.733333 0 0 0 82.346666-4.053333 253.226667 253.226667 0 0 0 152.32-66.133334 234.666667 234.666667 0 0 0 4.693334-334.72z" fill="#00A3FF" p-id="4044"></path><path d="M380.460373 441.386667a236.16 236.16 0 0 0-144.213333-49.493334 230.186667 230.186667 0 0 0-168.746667 74.24 240.64 240.64 0 0 0 4.053334 338.346667 218.453333 218.453333 0 0 0 131.84 61.866667L298.753707 775.466667h-54.186667a161.92 161.92 0 0 1-106.666667-41.173334 149.333333 149.333333 0 0 1-4.053333-206.293333 136.32 136.32 0 0 1 102.826667-41.173333 130.773333 130.773333 0 0 1 98.773333 41.173333c16.426667 16.64 61.866667 49.493333 78.293333 66.133333h4.053334l61.866666-61.866666v-4.266667c-28.8-28.8-74.24-65.92-98.773333-86.613333" fill="#00C8DC" p-id="4045"></path><path d="M812.673707 338.346667a318.08 318.08 0 0 0-613.546667 57.813333c12.373333 0 24.746667-4.266667 41.173333-4.266667s37.12 4.266667 53.546667 4.266667A221.226667 221.226667 0 0 1 512.08704 218.666667a228.053333 228.053333 0 0 1 205.866667 132.053333s4.053333 4.053333 4.053333 0a695.68 695.68 0 0 1 90.666667-12.373333" fill="#006EFF" p-id="4046"></path></svg>