<?xml version="1.0" standalone="no"?><!DOCTYPE svg PUBLIC "-//W3C//DTD SVG 1.1//EN" "http://www.w3.org/Graphics/SVG/1.1/DTD/svg11.dtd"><svg t="1695692097714" class="icon" viewBox="0 0 1024 1024" version="1.1" xmlns="http://www.w3.org/2000/svg" p-id="15909" xmlns:xlink="http://www.w3.org/1999/xlink" width="200" height="200"><path d="M512 96c166.4 0 307.84 116.032 343.424 274.56l2.496 12.352 8.32 4.544a256.064 256.064 0 0 1 125.44 206.784l0.32 13.76a256.192 256.192 0 0 1-242.816 255.68l-13.184 0.32H286.528l-12.544-0.384a256 256 0 0 1-116.096-476.16l8.192-4.608 2.56-12.288a352.064 352.064 0 0 1 328.32-274.24zM384 640H320v64h64v-64z m320 0H448v64h256v-64zM384 512H320v64h64V512z m320 0H448v64h256V512z" fill="#727272" p-id="15910"></path></svg>