<svg width="50" height="49" xmlns="http://www.w3.org/2000/svg" xmlns:xlink="http://www.w3.org/1999/xlink" xml:space="preserve" overflow="hidden"><g transform="translate(-742 -429)"><g><g><g><g><path d="M780.545 467.089C780.325 467.308 779.971 467.308 779.753 467.089L775.934 463.272C776.216 463.019 776.48 462.746 776.718 462.451L780.547 466.298C780.764 466.516 780.763 466.87 780.545 467.089ZM766.418 458.123C766.418 455.413 768.623 453.208 771.333 453.208 774.043 453.208 776.248 455.413 776.248 458.123 776.248 460.833 774.043 463.038 771.333 463.038 768.623 463.038 766.418 460.833 766.418 458.123ZM777.759 460.662C778.071 459.875 778.248 459.02 778.248 458.123 778.248 454.311 775.146 451.208 771.333 451.208 767.521 451.208 764.418 454.311 764.418 458.123 764.418 461.936 767.521 465.038 771.333 465.038 772.367 465.038 773.346 464.803 774.229 464.395L778.339 468.503C778.838 469.002 779.493 469.252 780.149 469.252 780.805 469.252 781.46 469.002 781.959 468.503 782.956 467.506 782.958 465.884 781.964 464.887L777.759 460.662ZM773.254 454.945 772.065 456.553C771.309 455.994 770.246 456.155 769.691 456.905 769.42 457.27 769.309 457.717 769.375 458.165 769.441 458.613 769.679 459.009 770.043 459.278L768.852 460.886C768.059 460.298 767.542 459.436 767.397 458.459 767.252 457.483 767.495 456.507 768.083 455.714 769.298 454.076 771.617 453.733 773.254 454.945ZM782.76 455.443C782.76 458.56 781.066 460.161 779.647 460.956L778.67 459.21C780.057 458.435 780.76 457.167 780.76 455.443 780.76 452.107 777.975 451.274 776.777 451.07 776.511 451.025 776.273 450.872 776.12 450.649 775.984 450.45 775.926 450.211 775.951 449.975 775.778 448.01 774.664 447.128 773.619 447.128 772.969 447.128 772.355 447.453 771.935 448.02 771.714 448.316 771.351 448.463 770.983 448.413 770.619 448.359 770.314 448.108 770.19 447.76 769.757 446.55 769.136 445.535 768.344 444.742 767.378 443.777 764.73 441.704 760.991 443.283 758.838 444.191 757.151 446.81 757.151 449.245 757.151 449.52 757.167 449.794 757.199 450.059 757.233 450.342 757.144 450.627 756.954 450.841 756.809 451.004 756.615 451.114 756.403 451.157 755.161 451.484 753.133 452.467 753.133 455.399 753.133 457.642 754.355 458.878 755.38 459.52 755.694 459.72 756.066 459.826 756.458 459.83L763.244 459.837 763.242 461.837 756.446 461.83C755.671 461.822 754.936 461.609 754.312 461.211 753.128 460.47 751.133 458.724 751.133 455.399 751.133 452.576 752.619 450.408 755.154 449.458 755.152 449.387 755.151 449.317 755.151 449.245 755.151 446.012 757.327 442.656 760.213 441.441 763.587 440.017 767.153 440.723 769.758 443.328 770.444 444.015 771.025 444.822 771.494 445.741 772.129 445.344 772.858 445.128 773.619 445.128 775.41 445.128 777.417 446.429 777.877 449.266 780.36 449.936 782.76 451.842 782.76 455.443ZM786.827 469.38C786.827 471.832 784.832 473.827 782.379 473.827L751.448 473.827C748.995 473.827 747 471.832 747 469.38L747 438.448C747 435.995 748.995 434 751.448 434L782.379 434C784.832 434 786.827 435.995 786.827 438.448L786.827 469.38ZM782.379 432 751.448 432C747.893 432 745 434.893 745 438.448L745 469.38C745 472.935 747.893 475.827 751.448 475.827L782.379 475.827C785.935 475.827 788.827 472.935 788.827 469.38L788.827 438.448C788.827 434.893 785.935 432 782.379 432Z" fill="#ED7100" fill-rule="evenodd" fill-opacity="1"/></g></g></g></g></g></svg>