<svg width="48" height="50" xmlns="http://www.w3.org/2000/svg" xmlns:xlink="http://www.w3.org/1999/xlink" xml:space="preserve" overflow="hidden"><g transform="translate(-384 -294)"><g><g><g><g><path d="M405.306 313.375C407.678 313.932 410.68 314 412 314 413.321 314 416.323 313.932 418.695 313.375L413 324.764 413 328 411 328 411 324.764 405.306 313.375ZM412 310C415.95 310 418.573 310.561 419.617 311 418.573 311.441 415.95 312 412 312 408.051 312 405.429 311.441 404.384 311 405.429 310.561 408.051 310 412 310ZM415 330 415 325.236 421.642 311.952C421.868 311.674 422 311.359 422 311 422 308.217 414.346 308 412 308 409.655 308 402 308.217 402 311 402 311.359 402.131 311.674 402.358 311.952L409 325.236 409 330 415 330ZM388 297 393 297 393 299 390 299 390 339 393 339 393 341 388 341 388 297ZM400 337 424 337 424 335 400 335 400 337ZM400 333 424 333 424 331 400 331 400 333ZM400 307 424 307 424 305 400 305 400 307ZM400 303 424 303 424 301 400 301 400 303ZM397 339 426 339 426 299 397 299 397 339ZM395 341 428 341 428 297 395 297 395 341Z" fill="#8C4FFF" fill-rule="evenodd" fill-opacity="1"/></g></g></g></g></g></svg>