<svg width="50" height="49" xmlns="http://www.w3.org/2000/svg" xmlns:xlink="http://www.w3.org/1999/xlink" xml:space="preserve" overflow="hidden"><g transform="translate(-638 -149)"><g><g><g><g><path d="M660.24 175.383C659.99 175.383 659.69 175.347 659.338 175.276 658.987 175.203 658.67 175.114 658.391 175.009L658.391 176.199C658.633 176.336 658.93 176.445 659.286 176.529 659.641 176.612 659.997 176.654 660.352 176.654 661.17 176.654 661.81 176.444 662.276 176.024 662.742 175.605 662.974 175.035 662.974 174.317 662.974 173.946 662.919 173.63 662.81 173.369 662.7 173.109 662.529 172.872 662.299 172.66 662.068 172.448 661.756 172.237 661.362 172.025L660.75 171.695C660.417 171.515 660.193 171.348 660.075 171.196 659.958 171.045 659.898 170.852 659.898 170.617 659.898 170.338 659.99 170.118 660.172 169.96 660.352 169.801 660.602 169.721 660.92 169.721 661.388 169.721 661.93 169.834 662.544 170.062L662.544 168.86C661.953 168.587 661.359 168.45 660.761 168.45 660.286 168.45 659.864 168.543 659.497 168.729 659.13 168.914 658.841 169.179 658.628 169.523 658.417 169.867 658.31 170.27 658.31 170.731 658.31 171.231 658.43 171.654 658.674 172.002 658.916 172.35 659.317 172.675 659.878 172.978L660.489 173.307C660.799 173.473 661.021 173.638 661.153 173.8 661.284 173.963 661.351 174.161 661.351 174.396 661.351 174.714 661.258 174.957 661.068 175.127 660.878 175.298 660.602 175.383 660.24 175.383ZM655.77 172.433C655.77 171.541 655.651 170.885 655.411 170.464 655.174 170.045 654.802 169.834 654.294 169.834L653.635 169.834 653.635 175.27 654.305 175.27C654.797 175.27 655.164 175.056 655.406 174.629 655.648 174.2 655.77 173.544 655.77 172.66L655.77 172.433ZM656.643 169.619C657.149 170.285 657.403 171.26 657.403 172.546 657.403 173.84 657.154 174.82 656.654 175.486 656.154 176.151 655.429 176.484 654.476 176.484L652.049 176.484 652.049 168.621 654.419 168.621C655.395 168.621 656.135 168.954 656.643 169.619ZM649.201 171.094C649.201 170.671 649.122 170.35 648.969 170.13 648.812 169.91 648.588 169.801 648.292 169.801L647.555 169.801 647.555 172.388 648.292 172.388C648.588 172.388 648.812 172.279 648.969 172.059 649.122 171.839 649.201 171.518 649.201 171.094ZM649.586 173.33 651.174 176.484 649.542 176.484 648.169 173.568 647.555 173.568 647.555 176.484 646.002 176.484 646.002 168.621 648.485 168.621C649.182 168.621 649.735 168.842 650.148 169.285 650.56 169.727 650.766 170.33 650.766 171.094 650.766 171.623 650.664 172.081 650.461 172.467 650.255 172.853 649.964 173.141 649.586 173.33ZM680.594 165.138 680.594 160.883C680.594 160.331 680.477 159.911 680.247 159.623 680.016 159.336 679.68 159.193 679.244 159.193 678.69 159.193 678.112 159.416 677.508 159.862L677.383 159.34 676.112 159.34 676.112 165.138 677.666 165.138 677.666 160.645C677.945 160.463 678.203 160.372 678.437 160.372 678.656 160.372 678.812 160.448 678.903 160.599 678.994 160.751 679.039 160.993 679.039 161.325L679.039 165.138 680.594 165.138ZM673.469 162.245C673.469 161.602 673.406 161.129 673.281 160.826 673.156 160.524 672.953 160.372 672.674 160.372 672.395 160.372 672.192 160.524 672.067 160.826 671.943 161.129 671.88 161.602 671.88 162.245 671.88 162.888 671.943 163.359 672.067 163.657 672.192 163.956 672.395 164.106 672.674 164.106 672.953 164.106 673.156 163.956 673.281 163.657 673.406 163.359 673.469 162.888 673.469 162.245ZM674.411 159.987C674.818 160.516 675.023 161.269 675.023 162.245 675.023 163.213 674.818 163.961 674.411 164.49 674.003 165.021 673.424 165.285 672.674 165.285 671.927 165.285 671.346 165.021 670.938 164.49 670.529 163.961 670.326 163.213 670.326 162.245 670.326 161.269 670.529 160.516 670.938 159.987 671.346 159.457 671.927 159.193 672.674 159.193 673.424 159.193 674.003 159.457 674.411 159.987ZM665.594 165.138 669.622 165.138 669.622 163.946 667.229 163.946 669.576 160.441 669.576 159.34 665.685 159.34 665.685 160.531 667.943 160.531 665.594 164.037 665.594 165.138ZM663.234 163.833 663.234 162.721C663.068 162.668 662.872 162.642 662.643 162.642 662.425 162.642 662.256 162.712 662.14 162.852 662.021 162.991 661.964 163.195 661.964 163.458 661.964 163.686 662.01 163.865 662.105 163.997 662.201 164.13 662.326 164.195 662.485 164.195 662.735 164.195 662.984 164.074 663.234 163.833ZM662.77 165.099C662.526 165.223 662.281 165.285 662.031 165.285 661.562 165.285 661.192 165.133 660.92 164.825 660.648 164.52 660.51 164.098 660.51 163.561 660.51 162.993 660.677 162.545 661.01 162.216 661.344 161.887 661.794 161.723 662.36 161.723 662.594 161.723 662.885 161.769 663.234 161.859L663.234 161.337C663.234 160.944 663.182 160.677 663.081 160.537 662.979 160.398 662.789 160.327 662.508 160.327 662.054 160.327 661.498 160.448 660.841 160.69L660.841 159.657C661.06 159.514 661.346 159.401 661.703 159.318 662.057 159.235 662.422 159.193 662.792 159.193 663.45 159.193 663.927 159.342 664.221 159.641 664.516 159.94 664.664 160.418 664.664 161.076L664.664 165.138 663.461 165.138 663.326 164.616C663.196 164.813 663.01 164.973 662.77 165.099ZM659.411 165.138 659.411 160.883C659.411 160.338 659.297 159.921 659.07 159.629 658.844 159.338 658.518 159.193 658.094 159.193 657.565 159.193 656.99 159.423 656.37 159.885 656.151 159.423 655.773 159.193 655.237 159.193 654.706 159.193 654.138 159.416 653.534 159.862L653.409 159.34 652.138 159.34 652.138 165.138 653.693 165.138 653.693 160.645C653.971 160.463 654.219 160.372 654.43 160.372 654.635 160.372 654.781 160.448 654.867 160.599 654.955 160.751 654.997 160.989 654.997 161.315L654.997 165.138 656.552 165.138 656.552 160.905 656.552 160.77C656.552 160.724 656.549 160.683 656.541 160.645 656.82 160.463 657.07 160.372 657.289 160.372 657.494 160.372 657.638 160.448 657.727 160.599 657.812 160.751 657.857 160.989 657.857 161.315L657.857 165.138 659.411 165.138ZM649.008 162.132 648.292 158.875 647.601 162.132 649.008 162.132ZM651.401 165.138 649.654 165.138 649.245 163.266 647.362 163.266 646.966 165.138 645.297 165.138 647.476 157.276 649.234 157.276 651.401 165.138ZM683.003 180.006 683.003 176.471C681.271 177.414 678.648 177.903 676.036 177.903 673.424 177.903 670.802 177.414 669.071 176.471L669.071 180.006C669.071 180.635 671.44 182.11 676.036 182.11 680.633 182.11 683.003 180.635 683.003 180.006ZM683.003 186.104 683.003 182.678C681.271 183.621 678.648 184.11 676.036 184.11 673.424 184.11 670.802 183.621 669.071 182.678L669.071 186.104C669.071 186.733 671.44 188.207 676.036 188.207 680.633 188.207 683.003 186.733 683.003 186.104ZM683.003 191.548 683.003 188.776C681.271 189.719 678.648 190.207 676.036 190.207 673.424 190.207 670.802 189.719 669.071 188.776L669.071 191.548C669.071 192.177 671.44 193.652 676.036 193.652 680.633 193.652 683.003 192.177 683.003 191.548ZM669.071 173.799C669.071 174.428 671.44 175.903 676.036 175.903 680.633 175.903 683.003 174.428 683.003 173.799 683.003 173.17 680.633 171.695 676.036 171.695 671.44 171.695 669.071 173.17 669.071 173.799ZM685.003 173.799 685.003 191.548C685.003 194.242 680.492 195.652 676.036 195.652 671.581 195.652 667.071 194.242 667.071 191.548L667.071 173.799C667.071 171.105 671.581 169.696 676.036 169.696 680.492 169.696 685.003 171.105 685.003 173.799ZM646.755 193.892 666.437 193.892 666.437 195.892 646.755 195.892C643.581 195.892 641 193.311 641 190.138L641 157.755C641 154.582 643.581 152 646.755 152L679.136 152C682.31 152 684.891 154.582 684.891 157.755L684.891 170.455 682.891 170.455 682.891 157.755C682.891 155.685 681.208 154 679.136 154L646.755 154C644.683 154 643 155.685 643 157.755L643 190.138C643 192.208 644.683 193.892 646.755 193.892Z" fill="#C925D1" fill-rule="evenodd" fill-opacity="1"/></g></g></g></g></g></svg>