<svg width="50" height="50" xmlns="http://www.w3.org/2000/svg" xmlns:xlink="http://www.w3.org/1999/xlink" xml:space="preserve" overflow="hidden"><g transform="translate(-278 -294)"><g><g><g><g><path d="M319.542 321.158 319.764 319.513C321.502 320.572 322.074 321.207 322.251 321.481 321.958 321.538 321.217 321.566 319.542 321.158ZM315.547 335.836C315.541 335.881 315.538 335.925 315.538 335.97 315.538 336.124 315.158 336.714 313.472 337.381 312.722 337.677 311.833 337.943 310.831 338.175 308.249 338.771 305.082 339.1 301.914 339.1 293.439 339.1 288.293 336.926 288.293 335.97 288.293 335.925 288.29 335.881 288.284 335.836L284.441 307.293C284.689 307.437 284.956 307.576 285.235 307.711 285.311 307.747 285.393 307.781 285.47 307.816 285.715 307.929 285.97 308.039 286.235 308.145 286.344 308.188 286.453 308.23 286.564 308.273 286.848 308.379 287.141 308.482 287.443 308.581 287.522 308.606 287.598 308.635 287.68 308.66 288.062 308.78 288.459 308.894 288.869 309.004 288.975 309.031 289.085 309.057 289.192 309.085 289.514 309.166 289.84 309.245 290.174 309.319 290.309 309.349 290.442 309.379 290.578 309.407 290.953 309.486 291.334 309.561 291.723 309.632 291.797 309.645 291.87 309.661 291.945 309.674 292.407 309.756 292.879 309.83 293.356 309.898 293.487 309.918 293.62 309.934 293.752 309.953 294.119 310.003 294.488 310.05 294.862 310.094 295.01 310.11 295.155 310.127 295.303 310.143 295.753 310.191 296.205 310.235 296.662 310.274 296.713 310.278 296.762 310.283 296.813 310.288 297.318 310.329 297.827 310.362 298.338 310.391 298.48 310.399 298.623 310.405 298.766 310.413 299.152 310.431 299.54 310.447 299.928 310.46 300.078 310.465 300.227 310.47 300.376 310.473 300.89 310.486 301.402 310.494 301.914 310.494 302.426 310.494 302.939 310.486 303.453 310.473 303.602 310.47 303.751 310.465 303.9 310.46 304.289 310.447 304.676 310.431 305.063 310.413 305.206 310.405 305.348 310.399 305.49 310.391 306.001 310.362 306.511 310.329 307.017 310.288 307.065 310.284 307.113 310.278 307.162 310.274 307.621 310.236 308.076 310.191 308.527 310.142 308.674 310.127 308.818 310.11 308.964 310.094 309.341 310.05 309.713 310.003 310.082 309.952 310.212 309.934 310.342 309.918 310.471 309.899 310.95 309.83 311.424 309.755 311.888 309.674 311.957 309.661 312.023 309.647 312.093 309.635 312.488 309.563 312.877 309.486 313.258 309.406 313.389 309.379 313.519 309.349 313.648 309.321 313.99 309.245 314.324 309.165 314.651 309.082 314.752 309.055 314.855 309.031 314.955 309.005 315.369 308.895 315.771 308.78 316.157 308.658 316.23 308.635 316.298 308.61 316.369 308.587 316.682 308.485 316.984 308.38 317.275 308.269 317.381 308.23 317.484 308.189 317.588 308.148 317.861 308.039 318.125 307.927 318.378 307.809 318.447 307.777 318.522 307.746 318.591 307.713 318.872 307.578 319.141 307.438 319.391 307.293L317.598 320.607C313.027 319.172 306.931 316.395 304.164 315.095 304.161 313.995 303.266 313.1 302.165 313.1 301.063 313.1 300.165 313.998 300.165 315.1 300.165 316.203 301.063 317.1 302.165 317.1 302.525 317.1 302.859 316.997 303.152 316.829 306.312 318.32 312.604 321.178 317.327 322.617L315.547 335.836ZM301.914 299C312.344 299 319.692 302.231 319.83 304.026L319.803 304.235C319.785 304.295 319.746 304.357 319.715 304.42 319.687 304.472 319.667 304.525 319.629 304.579 319.584 304.641 319.521 304.705 319.463 304.767 319.412 304.822 319.369 304.877 319.309 304.932 319.238 304.996 319.148 305.061 319.064 305.126 318.992 305.181 318.928 305.236 318.846 305.293 318.748 305.358 318.632 305.424 318.521 305.49 318.43 305.545 318.346 305.599 318.244 305.654 318.119 305.721 317.975 305.789 317.836 305.856 317.729 305.908 317.628 305.962 317.511 306.013 317.357 306.082 317.186 306.149 317.02 306.217 316.895 306.266 316.779 306.317 316.646 306.367 316.468 306.433 316.27 306.499 316.078 306.564 315.938 306.612 315.805 306.661 315.658 306.709 315.453 306.773 315.23 306.836 315.014 306.898 314.858 306.943 314.711 306.99 314.549 307.033 314.322 307.095 314.076 307.153 313.835 307.212 313.664 307.254 313.502 307.298 313.324 307.338 313.069 307.396 312.797 307.45 312.529 307.505 312.349 307.542 312.177 307.581 311.99 307.616 311.706 307.671 311.403 307.72 311.105 307.769 310.919 307.802 310.741 307.836 310.55 307.865 310.244 307.913 309.921 307.954 309.603 307.997 309.402 308.024 309.211 308.054 309.006 308.079 308.673 308.12 308.323 308.154 307.978 308.189 307.773 308.21 307.576 308.234 307.367 308.254 307.021 308.285 306.658 308.308 306.301 308.334 306.076 308.35 305.861 308.371 305.633 308.385 305.252 308.407 304.856 308.421 304.465 308.436 304.246 308.445 304.036 308.459 303.814 308.466 303.194 308.484 302.561 308.494 301.914 308.494 301.268 308.494 300.634 308.484 300.014 308.466 299.793 308.459 299.584 308.445 299.366 308.437 298.974 308.421 298.577 308.407 298.196 308.385 297.971 308.371 297.758 308.35 297.536 308.335 297.176 308.308 296.811 308.285 296.462 308.254 296.258 308.235 296.066 308.211 295.866 308.19 295.516 308.154 295.161 308.121 294.823 308.079 294.625 308.054 294.438 308.025 294.244 308 293.92 307.956 293.591 307.914 293.279 307.865 293.096 307.837 292.925 307.804 292.746 307.773 292.439 307.722 292.13 307.672 291.838 307.616 291.662 307.583 291.501 307.546 291.331 307.512 291.053 307.454 290.77 307.398 290.504 307.338 290.338 307.3 290.187 307.259 290.025 307.22 289.773 307.158 289.518 307.097 289.279 307.033 289.127 306.992 288.99 306.948 288.846 306.906 288.617 306.841 288.385 306.775 288.171 306.708 288.033 306.664 287.911 306.618 287.779 306.574 287.577 306.505 287.369 306.436 287.182 306.366 287.059 306.32 286.952 306.272 286.836 306.225 286.66 306.155 286.479 306.085 286.318 306.013 286.209 305.964 286.115 305.914 286.014 305.865 285.867 305.795 285.716 305.724 285.585 305.653 285.49 305.601 285.412 305.551 285.325 305.499 285.209 305.429 285.086 305.36 284.984 305.291 284.906 305.238 284.846 305.185 284.776 305.133 284.689 305.065 284.596 304.998 284.522 304.931 284.463 304.878 284.422 304.825 284.373 304.771 284.313 304.707 284.248 304.642 284.203 304.579 284.165 304.525 284.146 304.473 284.119 304.421 284.086 304.358 284.047 304.296 284.029 304.235L284.002 304.026C284.141 302.231 291.487 299 301.914 299ZM324.297 321.277C324.081 320.123 322.754 318.904 320.053 317.367L321.771 304.6 321.771 304.599 321.771 304.598 321.823 304.209C321.829 304.165 321.832 304.121 321.832 304.077 321.832 299.906 311.335 297 301.914 297 292.495 297 282 299.906 282 304.077 282 304.121 282.003 304.165 282.009 304.209L282.061 304.598 282.061 304.599 282.061 304.6 286.294 336.047C286.425 339.726 295.916 341.1 301.914 341.1 305.229 341.1 308.556 340.754 311.281 340.124 312.38 339.87 313.363 339.573 314.206 339.241 316.373 338.384 317.493 337.308 317.537 336.047L319.273 323.151C320.298 323.392 321.14 323.514 321.826 323.514 322.817 323.514 323.484 323.262 323.909 322.755 324.26 322.338 324.397 321.813 324.297 321.277Z" fill="#7AA116" fill-rule="evenodd" fill-opacity="1"/></g></g></g></g></g></svg>